PathFileType	4	(X/Y/Z)	C:/Users/beibeiliu/ov580/test_trc\sequence.14_training_dense_right.trc
DataRate	CameraRate	NumFrames	NumMarkers	Units	OrigDataRate	OrigDataStartFrame	OrigNumFrames
120	120	20	19	mm	120	1	73
Frame#	Time	ThumbCMC			ThumbMCP			ThumbIP			ThumbTip			IndexMCP			IndexPIP			IndexTip			MiddleMCP			MiddlePIP			MiddleTip			RingMCP			RingPIP			RingTip			PinkyMCP			PinkyPIP			PinkyTip			BackHand1			BackHand2			BackHand3	
		X0	Y0	Z0	X1	Y1	Z1	X2	Y2	Z2	X3	Y3	Z3	X4	Y4	Z4	X5	Y5	Z5	X6	Y6	Z6	X7	Y7	Z7	X8	Y8	Z8	X9	Y9	Z9	X10	Y10	Z10	X11	Y11	Z11	X12	Y12	Z12	X13	Y13	Z13	X14	Y14	Z14	X15	Y15	Z15	X16	Y16	Z16	X17	Y17	Z17	X18	Y18	Z18	
0	0	31.3039	57.6799	34.4228	10.5661	39.1713	15.7365	6.06636	28.3842	-6.57748	5.67002	18.2471	-25.0083	27.8101	63.3573	-33.1938	21.4639	49.7396	-56.7234	13.2292	37.3583	-71.1908	51.4702	60.1389	-42.0094	44.1195	49.2372	-64.4127	43.4252	30.8491	-85.4188	67.9727	53.5003	-38.0924	65.0414	42.1183	-59.584	63.3722	27.9312	-77.6865	85.5408	46.8663	-27.8038	87.3325	36.3198	-44.7856	88.6217	26.2892	-59.3881	73.5362	71.2527	5.3537	76.3641	77.9502	32.3028	50.0155	79.0922	22.2104	
1	0.00833333	28.3541	57.1971	29.5436	14.347	40.0789	16.2853	7.61677	29.1219	-8.46071	3.10615	16.7912	-23.7801	27.685	62.1206	-33.3164	19.3288	50.8259	-56.9686	16.7921	33.9996	-74.3833	47.8729	60.1469	-40.8862	43.0015	46.3397	-67.7906	42.9001	29.0088	-87.0848	65.4421	53.5585	-40.3763	69.957	42.3961	-57.4811	62.3832	28.096	-77.2941	84.7643	46.5771	-27.0914	87.3473	35.1667	-45.7593	83.7306	24.2294	-61.7112	72.8188	70.5753	5.21089	75.9649	76.7473	31.544	48.4841	79.6748	18.7201	
2	0.0166667	28.1136	57.1611	35.0089	14.6658	39.952	13.8517	6.23969	29.0145	-7.64498	6.12936	18.8956	-25.0594	28.3067	61.6154	-33.8232	19.4647	52.2177	-53.5477	18.011	36.0572	-72.2527	47.5882	58.3084	-45.7138	43.0845	46.3852	-67.3385	43.261	27.3263	-87.6935	68.7262	52.9605	-39.0904	66.1926	42.8625	-56.9885	63.5249	27.7751	-75.8447	85.3202	46.867	-28.831	87.6172	35.3033	-43.0147	85.3625	26.1648	-58.7184	73.8413	70.2731	4.01992	78.8599	76.7396	28.3598	51.0621	79.654	19.8659	
3	0.025	26.892	57.293	32.2694	12.2606	39.918	16.6318	6.86781	29.5084	-8.86363	4.1715	17.4211	-25.841	26.6126	62.541	-31.7689	19.2417	49.5146	-56.7135	18.9792	34.7736	-73.3187	51.8972	58.6335	-43.9601	46.7762	45.0913	-68.2132	45.6445	27.693	-85.7997	67.1512	53.7043	-40.729	66.8558	41.1557	-60.7916	61.8836	27.3644	-75.9218	85.3828	47.0701	-27.4482	86.6716	36.7736	-41.406	85.9385	23.2511	-61.5132	71.4571	72.336	4.32326	77.9198	74.9654	31.581	47.0425	78.8832	17.1672	
4	0.0333333	26.0855	58.6891	30.8739	13.6716	40.9317	15.448	6.45487	30.2525	-7.32706	4.90929	18.1758	-26.0133	28.4238	62.2747	-35.8393	20.0635	52.4978	-54.6999	19.747	35.3171	-72.3713	48.294	60.5866	-40.4554	44.839	45.0973	-67.5071	42.7692	30.1079	-84.8602	67.511	53.6544	-35.6018	64.1377	40.7522	-60.6759	61.9267	26.9461	-77.5518	87.3144	46.5223	-24.6102	87.0106	34.6945	-45.7549	85.6273	21.9968	-60.9264	73.2783	71.5211	7.4077	81.5968	76.5036	30.8227	53.7413	78.8608	19.9783	
5	0.0416667	26.824	57.4404	29.6073	15.8596	40.399	14.6458	8.64219	29.7965	-3.15764	5.10365	18.652	-22.6122	25.5809	61.4204	-33.8877	23.8308	49.478	-56.9602	13.3026	33.3563	-74.2039	50.6449	59.2536	-41.1437	47.949	46.6241	-65.573	42.7376	30.3437	-83.6833	66.1334	52.8517	-39.3191	67.8855	41.6179	-58.7076	60.716	28.337	-73.8566	88.4223	44.8971	-28.2587	86.0046	36.8377	-43.0767	87.7017	21.7056	-62.9725	76.7837	69.5074	3.78689	78.2272	75.1749	28.1308	52.6063	78.1015	15.8258	
6	0.05	29.0934	56.4077	29.7705	12.0121	39.6627	15.632	3.89358	28.1716	-6.41044	2.01003	15.8811	-23.2738	26.3645	60.5579	-34.7866	18.1896	49.2889	-57.0447	18.4551	33.6292	-74.4213	47.3289	59.2024	-42.7711	45.1868	46.1062	-65.8655	42.8192	28.0724	-85.5235	69.8155	52.3931	-40.2079	68.4674	40.9561	-59.5483	63.9601	27.8549	-75.3064	85.5332	46.2585	-26.4844	88.8946	33.2922	-45.0787	87.0101	20.746	-63.4527	73.2776	71.2279	6.15775	75.8734	75.3135	29.9359	49.9228	77.4206	16.2904	
7	0.0583333	28.4538	57.1531	33.1168	12.5933	40.2414	13.5608	6.38265	29.1413	-7.60818	5.82191	16.9104	-28.2926	24.2012	62.6819	-35.9591	20.8072	49.6676	-59.5135	15.1052	36.1977	-78.1253	49.0555	58.6382	-45.4175	45.0986	46.8956	-68.1673	44.9511	28.4306	-90.8979	69.9806	51.9877	-41.7058	69.0024	41.471	-61.8107	61.2624	31.6633	-77.1491	85.6832	47.3183	-26.5626	86.0909	37.3694	-43.8454	88.2958	24.954	-63.559	72.0998	72.3981	0.718148	77.1934	76.658	30.3406	48.43	79.511	18.4881	
8	0.0666667	30.0302	58.6745	26.5978	12.5574	41.2903	11.1304	10.9037	31.4721	-9.73223	13.4325	18.5429	-30.791	24.6168	65.1761	-37.7579	17.623	57.2515	-59.1149	14.434	46.8471	-76.3763	48.687	62.9078	-45.3778	44.1868	51.3199	-71.4735	41.7334	41.4186	-88.8874	65.8331	57.1147	-39.2181	64.578	47.4039	-60.3134	61.267	36.6971	-82.289	85.455	48.7441	-30.0166	83.033	39.1148	-47.9116	87.8196	29.0763	-62.6765	75.9416	73.3011	0.44063	79.5384	76.5481	25.5478	51.7061	79.8549	17.8488	
9	0.075	26.6426	61.5022	30.8584	12.116	42.3962	7.23073	13.3116	33.405	-14.4962	25.5521	22.8382	-36.4559	23.3759	70.9955	-37.8569	12.5889	65.1788	-54.7569	7.40282	55.379	-78.5925	42.1428	69.1429	-47.9563	40.1801	60.2623	-71.7888	37.0426	54.442	-91.3543	64.008	61.6086	-40.2749	60.6268	54.5756	-61.256	57.3988	47.6791	-82.3732	84.5831	51.2665	-31.6239	81.5874	44.0983	-48.9001	81.7499	39.1011	-66.8632	69.2118	74.3075	3.21773	77.564	77.6698	23.7467	52.3626	84.1324	17.8346	
10	0.0833333	26.8056	62.9486	26.3067	10.4418	43.4597	1.25589	16.953	33.011	-21.1099	38.5312	27.2206	-36.524	18.0007	74.9554	-33.7052	6.36254	68.6228	-57.6484	4.69183	63.624	-76.499	40.5309	70.9203	-47.8171	38.8045	66.4797	-68.6726	34.3924	62.2921	-92.1196	61.3695	63.8034	-45.0245	58.4223	59.4948	-63.2021	54.9085	55.5606	-83.5674	81.0624	52.5976	-33.2132	77.5227	47.9712	-50.2998	79.7269	44.8637	-71.5805	67.3374	76.0136	3.55885	75.3021	80.4923	26.454	48.9123	83.371	17.7291	
11	0.0916667	23.7744	61.341	29.2311	13.4755	44.6755	1.75865	23.021	35.5891	-25.6026	46.2614	30.1332	-37.562	11.6849	75.1323	-35.9944	4.17868	70.0267	-57.7421	-3.84696	65.0265	-78.1738	34.5661	72.8915	-45.0695	32.2177	68.9508	-70.4796	26.4405	68.3198	-92.4812	56.8652	65.1594	-45.3467	55.3284	60.6848	-64.0495	49.826	59.2311	-86.4324	71.994	54.9081	-37.9507	74.3106	49.464	-54.7387	77.3179	47.7288	-71.2103	65.3649	75.6723	-3.58031	71.8083	79.3874	23.1783	41.676	84.6425	13.3599	
12	0.1	19.7995	60.9211	27.4136	12.3404	42.9069	-0.634027	22.4534	34.7924	-22.0308	45.4049	31.4711	-35.2686	7.74868	75.6817	-38.5181	1.61751	69.5346	-57.8777	-8.44486	66.2051	-73.3864	30.2992	72.5274	-50.6351	29.8285	66.9119	-73.6068	25.6766	66.9387	-93.7146	52.0004	64.4773	-47.2691	52.4673	60.499	-68.1921	45.1895	62.2894	-86.0581	71.2224	54.8017	-38.5892	68.5162	51.4185	-54.2436	70.0521	51.6622	-72.2334	62.1008	77.1432	-3.30474	69.4483	78.0016	20.9043	41.6224	86.4208	15.4983	
13	0.108333	22.6019	58.9706	24.4091	12.0527	39.0247	-1.3066	24.5977	34.3135	-22.3942	45.9991	29.3793	-33.3999	10.6396	71.5	-36.3716	1.3843	67.1026	-57.3483	-10.1	64.3325	-78.4725	34.3031	69.0865	-47.0554	28.5214	65.6125	-69.2577	24.0326	65.3752	-95.8132	52.3366	61.5575	-48.3189	44.7807	60.2686	-64.4773	45.0586	60.5194	-82.2313	71.0842	52.871	-34.9692	68.1893	50.0673	-55.3655	66.8499	53.323	-68.7007	61.0063	73.6095	-0.316729	68.4023	76.4371	19.3848	39.8182	84.2708	15.6727	
14	0.116667	21.2507	55.0687	25.6793	10.1186	33.5748	0.109538	25.3622	30.3284	-21.7911	53.0021	29.3598	-32.7806	6.57695	68.9207	-37.6669	-0.291152	63.2	-57.8845	-11.1851	62.2171	-73.7952	29.1298	66.5383	-46.5882	28.5551	63.3164	-67.5916	22.232	64.0718	-93.3362	53.6582	59.0441	-45.6427	48.332	58.7461	-67.3501	44.2497	60.4087	-85.9586	70.4156	50.4244	-33.8237	73.2208	48.5473	-50.0271	72.9952	53.4373	-70.076	63.6535	69.6431	-1.94457	67.3201	75.1559	22.3566	39.2794	78.8165	12.6753	
15	0.125	20.3658	52.951	26.025	13.5013	32.1499	0.698309	26.175	26.5014	-21.5001	51.3221	25.894	-30.4013	7.39193	65.8188	-35.7997	-2.43353	60.7356	-55.9893	-11.9573	60.5048	-72.7397	31.2935	63.3221	-48.3296	24.864	61.7625	-69.7146	22.2107	63.8409	-90.1184	51.5634	57.8291	-45.0214	55.3917	55.569	-62.2228	51.5213	57.6387	-83.7705	74.7471	48.8325	-32.9197	77.6005	46.4508	-48.5289	80.3336	51.7744	-66.0819	66.3476	68.8509	-0.547231	71.2662	73.5353	20.0484	41.3658	76.3935	16.3101	
16	0.133333	24.9263	52.0526	26.5281	14.0521	31.3449	-0.752367	31.1865	28.5697	-22.5135	55.3287	25.7073	-29.8982	9.24779	64.7502	-36.7912	-1.00121	60.5998	-54.3052	-7.10524	59.4812	-76.5086	33.781	64.4495	-44.6085	28.7565	61.8173	-66.7053	30.24	63.0573	-90.0646	55.8667	57.4731	-39.7101	56.2422	55.9114	-64.5365	54.4042	58.2187	-84.5885	78.3958	48.6401	-28.8212	80.8912	45.9132	-50.301	86.2284	50.2874	-66.6737	65.8252	69.1697	1.38459	72.6551	73.7416	24.677	43.5184	75.4615	17.2969	
17	0.141667	23.1514	57.2784	25.4136	17.9348	37.3216	-1.06127	28.0804	27.8658	-20.8068	52.909	24.8475	-28.906	15.8828	66.7242	-39.1054	6.78145	62.1513	-57.4068	-1.2981	58.8001	-75.7852	39.8708	63.4754	-48.2429	34.9283	61.0594	-70.928	30.5614	62.4475	-92.3069	58.4001	57.6072	-42.4608	62.2007	53.3592	-65.8967	57.5045	54.3081	-82.3732	79.4479	47.4654	-31.822	84.6378	42.3079	-49.2132	92.9679	43.4045	-62.957	70.0568	69.5672	1.00786	75.3419	75.1041	26.7705	43.7502	79.0688	16.966	
18	0.15	29.2189	73.3105	28.1308	18.6405	51.6549	0.137156	26.0222	35.9224	-17.1298	52.3546	23.3552	-23.9233	25.4584	72.176	-38.6243	18.2751	65.0876	-57.1078	10.7108	57.8423	-80.4803	45.6253	60.1849	-49.3852	43.8107	51.9754	-66.2715	41.5358	45.6246	-92.553	68.0079	46.4993	-37.6661	64.1747	40.8162	-58.0532	60.6284	35.9011	-79.8966	80.535	36.0355	-24.5023	81.1367	25.855	-44.5905	86.1323	20.2314	-56.2168	75.131	67.2004	-0.997787	81.3646	73.2184	23.6463	59.5469	84.356	11.4347	
19	0.158333	49.8385	96.2402	19.0995	30.5822	77.6567	-0.672878	29.9936	57.7094	-11.2597	43.4725	32.8245	-13.5793	42.4035	81.0783	-40.356	29.3233	75.1391	-59.7999	17.1738	70.8026	-76.7582	53.4922	54.5529	-47.4046	42.4622	47.555	-64.8443	33.8463	38.6848	-86.9317	62.302	38.6395	-37.0369	53.4957	32.1418	-53.4018	45.8523	21.8056	-72.1	69.8399	28.7775	-16.7031	64.5351	15.0385	-29.9912	62.5859	5.32426	-48.1823	84.0529	62.1447	-3.77228	96.0054	68.3442	17.9961	81.4705	87.3813	6.93147	
